# xmcd CD database file
#
# Track frame offsets:
#	150
#	17495
#	34157
#	51910
#	71567
#	90595
#	110722
#	132262
#	154322
#
# Disc length: 2309 seconds
#
# Revision: 0
# Processed by: cddbd v1.5.1PL2 Copyright (c) Steve Scherf et al.
# Submitted via: CDex 1.51
#
DISCID=76090309
DTITLE=Jay Jay Johnson - The Eminent
DYEAR=1953
DGENRE=Jazz
TTITLE0=01-Capri-Alternate.Take
TTITLE1=02-Capri
TTITLE2=03-Lover.Man
TTITLE3=04-Turnpike
TTITLE4=05-Turnpike-Alternate.Take
TTITLE5=06-Sketch.1
TTITLE6=07-It.Could.Happen.To.You
TTITLE7=08-Get.Happy
TTITLE8=09-Get.Happy-Alternate.Take
EXTD=YEAR: 1953
EXTT0=
EXTT1=
EXTT2=
EXTT3=
EXTT4=
EXTT5=
EXTT6=
EXTT7=
EXTT8=
PLAYORDER=
